<?xml version="1.0" encoding="utf-8"?>
<!-- Generator: Adobe Illustrator 22.1.0, SVG Export Plug-In . SVG Version: 6.00 Build 0)  -->
<svg version="1.1" id="图层_1" xmlns="http://www.w3.org/2000/svg" xmlns:xlink="http://www.w3.org/1999/xlink" x="0px" y="0px"
	 viewBox="0 0 159 156.8" style="enable-background:new 0 0 159 156.8;" xml:space="preserve">
<style type="text/css">
	.st0{fill:#2B3033;}
	.st1{fill-rule:evenodd;clip-rule:evenodd;fill:url(#SVGID_1_);}
</style>
<g>
	<path class="st0" d="M17.1,151c-2.9,0-5-0.5-6.3-1.6c-1.9-1.5-2.9-4.7-2.9-9.6c0-3.6,0.6-6.1,1.9-7.5c1.5-1.7,3.8-2.5,7-2.5H27
		v-5.9H16c-3.4,0-6.1,0.5-8.3,1.4c-2.1,0.9-3.9,2.4-5.1,4.4C0.9,132.4,0,136,0,140.4c0,3.7,0.6,6.8,1.7,9.3c1.8,3.7,4.7,6,8.9,6.8
		c1.2,0.2,2.9,0.3,5.1,0.3H27V151H17.1z"/>
	<path class="st0" d="M47,151c-2.9,0-5-0.5-6.3-1.6c-1.9-1.5-2.9-4.7-2.9-9.6c0-3.6,0.6-6.1,1.9-7.5c1.5-1.7,3.8-2.5,7-2.5H57v-5.9
		H45.9c-3.4,0-6.1,0.5-8.3,1.4c-2.1,0.9-3.9,2.4-5.1,4.4c-1.8,2.8-2.6,6.4-2.6,10.8c0,3.7,0.6,6.8,1.7,9.3c1.8,3.7,4.7,6,8.9,6.8
		c1.2,0.2,2.9,0.3,5.1,0.3H57V151H47z"/>
	<path class="st0" d="M62,156.8h14.1c3.1,0,5.5-0.1,7-0.4c1.5-0.3,2.9-0.8,4.2-1.6c2-1.3,3.5-3.3,4.3-6c0.9-2.6,1.3-5.4,1.3-8.4
		c0-3-0.5-5.8-1.4-8.5c-1.2-3.4-3.6-5.8-7.2-7.1c-2-0.7-4.7-1-8.3-1H62V156.8z M76,129.7c2.8,0,4.8,0.6,6.1,1.7
		c0.9,0.8,1.6,2,2.1,3.6c0.5,1.6,0.8,3.4,0.8,5.3c0,1.8-0.2,3.4-0.7,5c-0.5,1.6-1.1,2.8-1.8,3.6c-1.2,1.4-3.4,2-6.5,2h-8v-21.2H76z"
		/>
	<path class="st0" d="M111.1,123.8c-2.4,0-4.2,0.2-5.6,0.6c-1.4,0.4-2.7,1.2-4,2.3c-3.6,3.2-5.4,7.7-5.4,13.4
		c0,5.2,1.3,9.3,3.8,12.3c1.8,2.1,4.2,3.4,7.2,3.9c1.9,0.3,4.1,0.4,6.7,0.4H124V151h-9.4c-3.5,0-5.9-0.6-7.4-1.7
		c-1.4-1.1-2.3-3.1-2.6-5.9H124v-5.9h-19.3c0.1-1.6,0.3-2.7,0.5-3.4c0.2-0.7,0.5-1.3,1-2c0.7-1,1.7-1.6,2.8-1.9
		c1.1-0.3,2.9-0.5,5.3-0.5h9.7v-5.9H111.1z"/>
	<path class="st0" d="M127.3,156.8h8.5l7.3-11.3l7.4,11.3h8.4l-11.4-16.7l11.4-16.3h-8.7l-7.2,10.9l-6.6-10.9h-8.8l11.1,16.3
		L127.3,156.8z"/>
</g>
<g>
	<g>
		<g>
			
				<linearGradient id="SVGID_1_" gradientUnits="userSpaceOnUse" x1="114.4854" y1="304.2281" x2="42.3597" y2="363.9687" gradientTransform="matrix(1 0 0 1 0 -283.6815)">
				<stop  offset="0" style="stop-color:#1ED4CA"/>
				<stop  offset="1" style="stop-color:#0EACD0"/>
			</linearGradient>
			<path class="st1" d="M122.1,34.7v-9.2L81.1,49v49.3l39.9-23c0,0,1.1-0.4,1.1-1.9V63.2L92.5,80.6l0,0c-0.2,0.1-0.3,0.2-0.5,0.2
				c-0.6,0-1.1-0.5-1.1-1.1V53.8c0-0.4,0.2-0.7,0.6-0.9l0,0l9.7-5.3l0-0.1l0,0l19.9-11C121,36.5,122.1,35.9,122.1,34.7z M36.9,74.7
				L79,98.3V86.8l-32.9-17l0,0c-0.3-0.2-0.6-0.5-0.6-0.9V43c0-0.6,0.5-1.1,1.1-1.1c0.2,0,0.4,0.1,0.5,0.1l0,0L79,59.5V49L36.9,25.4
				V74.7z M80,0L38,23.6l42,23.6l41-23.6L80,0z M47.7,67l19.8-11.3L47.7,44.8V67z M93,54.4v23.4L121,61.4l-19.9-11.4L93,54.4z
				 M48.9,68.8L79,84.4V62l-9.2-5.1L48.9,68.8z"/>
		</g>
	</g>
</g>
</svg>
