<?xml version="1.0" encoding="utf-8"?>
<!-- Generator: Adobe Illustrator 22.1.0, SVG Export Plug-In . SVG Version: 6.00 Build 0)  -->
<svg version="1.1" id="图层_1" xmlns="http://www.w3.org/2000/svg" xmlns:xlink="http://www.w3.org/1999/xlink" x="0px" y="0px"
	 viewBox="0 0 305.7 90" style="enable-background:new 0 0 305.7 90;" xml:space="preserve">
<style type="text/css">
	.st0{fill:#333333;}
	.st1{fill-rule:evenodd;clip-rule:evenodd;fill:#333333;}
</style>
<g>
	<g>
		<path class="st0" d="M113.5,25.8c-2.7,1.2-4.9,3-6.5,5.6c-2.2,3.5-3.3,8.1-3.3,13.7c0,4.7,0.7,8.6,2.2,11.8
			c2.2,4.7,6,7.6,11.2,8.6c1.5,0.3,3.7,0.4,6.5,0.4H138v-7.5h-12.6c-3.6,0-6.3-0.7-8-2c-2.4-1.9-3.7-6-3.7-12.2
			c0-4.6,0.8-7.8,2.4-9.5c1.9-2.1,4.9-3.2,8.9-3.2H138v-7.5h-14C119.7,24.1,116.2,24.6,113.5,25.8z M151.5,25.8
			c-2.7,1.2-4.9,3-6.5,5.6c-2.2,3.5-3.3,8.1-3.3,13.7c0,4.7,0.7,8.6,2.2,11.8c2.2,4.7,6,7.6,11.2,8.6c1.5,0.3,3.7,0.4,6.5,0.4h14.6
			v-7.5h-12.7c-3.6,0-6.3-0.7-8-2c-2.4-1.9-3.7-6-3.7-12.2c0-4.6,0.8-7.8,2.4-9.5c1.9-2.1,4.9-3.2,8.9-3.2h13.1v-7.5H162
			C157.7,24.1,154.2,24.6,151.5,25.8z M210.9,25.4c-2.5-0.9-6-1.3-10.5-1.3h-17.9v41.9h17.9c4,0,6.9-0.2,8.9-0.5
			c1.9-0.4,3.7-1,5.4-2c2.6-1.6,4.4-4.2,5.5-7.6c1.1-3.3,1.7-6.9,1.7-10.7c0-3.8-0.6-7.4-1.7-10.7C218.5,30,215.5,27,210.9,25.4z
			 M210.8,51.3c-0.6,2-1.3,3.5-2.3,4.6c-1.5,1.7-4.3,2.6-8.3,2.6h-10.2V31.5h10.2c3.5,0,6.1,0.7,7.7,2.1c1.1,1,2,2.5,2.7,4.6
			c0.7,2.1,1,4.3,1,6.8C211.7,47.2,211.4,49.3,210.8,51.3z M237.6,24.9c-1.8,0.5-3.5,1.5-5,2.9c-4.6,4.1-6.9,9.7-6.9,17
			c0,6.6,1.6,11.8,4.9,15.6c2.3,2.7,5.3,4.3,9.2,5c2.4,0.4,5.3,0.6,8.5,0.6h13v-7.5h-11.9c-4.4,0-7.5-0.7-9.4-2.1
			c-1.8-1.4-2.9-3.9-3.3-7.5h24.6v-7.5h-24.6c0.2-2,0.4-3.4,0.6-4.3c0.2-0.8,0.7-1.7,1.3-2.5c0.9-1.2,2.1-2,3.5-2.4
			c1.4-0.4,3.7-0.6,6.7-0.6h12.4v-7.5h-16.5C241.8,24.1,239.4,24.3,237.6,24.9z M305.7,24.1h-11.1l-9.1,13.8l-8.4-13.8h-11.2
			L280,44.8l-14.6,21.2h10.9l9.3-14.4l9.4,14.4h10.7l-14.5-21.2L305.7,24.1z"/>
	</g>
</g>
<g>
	<g>
		<path class="st1" d="M78,31.7v-8.4L40.5,44.9V90L77,69c0,0,1-0.4,1-1.7v-9.4L50.8,73.8l0,0c-0.1,0.1-0.3,0.2-0.5,0.2
			c-0.5,0-1-0.4-1-1V49.2c0-0.4,0.2-0.7,0.5-0.9l0,0l8.8-4.9l0-0.1l0,0l18.2-10C77,33.4,78,32.9,78,31.7z M0,68.4L38.5,90V79.4
			L8.4,63.9l0,0c-0.3-0.2-0.5-0.5-0.5-0.9V39.3c0-0.5,0.4-1,1-1c0.2,0,0.3,0.1,0.5,0.1l0,0l29.1,16v-9.6L0,23.3V68.4z M39.5,0
			L1,21.6l38.4,21.6L77,21.6L39.5,0z M9.9,61.3L28,51L9.9,41V61.3z M51.3,49.8v21.4l25.7-15L58.7,45.7L51.3,49.8z M11,63l27.5,14.2
			V56.7L30,52.1L11,63z"/>
	</g>
</g>
</svg>
