<?xml version="1.0" encoding="utf-8"?>
<!-- Generator: Adobe Illustrator 22.1.0, SVG Export Plug-In . SVG Version: 6.00 Build 0)  -->
<svg version="1.1" id="图层_1" xmlns="http://www.w3.org/2000/svg" xmlns:xlink="http://www.w3.org/1999/xlink" x="0px" y="0px"
	 viewBox="0 0 78 90" style="enable-background:new 0 0 78 90;" xml:space="preserve">
<style type="text/css">
	.st0{fill-rule:evenodd;clip-rule:evenodd;fill:#FFFFFF;}
</style>
<g>
	<g>
		<path class="st0" d="M78,31.7v-8.4L40.5,44.9V90L77,69c0,0,1-0.4,1-1.7v-9.4L50.8,73.8l0,0c-0.1,0.1-0.3,0.2-0.5,0.2
			c-0.5,0-1-0.4-1-1V49.2c0-0.4,0.2-0.7,0.5-0.9l0,0l8.8-4.9l0-0.1l0,0l18.2-10C77,33.4,78,32.9,78,31.7z M0,68.4L38.5,90V79.4
			L8.4,63.9l0,0c-0.3-0.2-0.5-0.5-0.5-0.9V39.3c0-0.5,0.4-1,1-1c0.2,0,0.3,0.1,0.5,0.1l0,0l29.1,16v-9.6L0,23.3V68.4z M39.5,0
			L1,21.6l38.4,21.6L77,21.6L39.5,0z M9.9,61.3L28,51L9.9,41V61.3z M51.3,49.8v21.4l25.7-15L58.7,45.7L51.3,49.8z M11,63l27.5,14.2
			V56.7l-8.4-4.6L11,63z"/>
	</g>
</g>
</svg>
